<svg width="600" height="600" viewBox="0 0 96 96" xmlns="http://www.w3.org/2000/svg">
			<title>arm 1</title>	
			<defs><linearGradient id="blue-to-blue-45" x1="1.015" y1="-0.888" x2="-0.045" y2="1.333" gradientUnits="objectBoundingBox">
			<stop offset="0" stop-color="#6f73d2"/>
			<stop offset="1" stop-color="#83c9f4"/>
		</linearGradient></defs>
			<rect width="96" height="96" fill="#ffc6ff"/><g id="egyptian-arms">
			<path d="M100.365,593.922H91.414V585l-6.239.506-1.084,3.578.968-1.96.47-.289.729-.289-.475,2.538,1.655-2.249-.248,2.249,1.42-2.749v11.179h11.754Z" transform="translate(-59 -553)" fill="url(#blue-to-blue-45)"/>
			<path d="M84.091,588.591h8.951v8.923l6.239-.506,1.084-3.578-.968,1.96-.47.289-.729.289.475-2.538-1.655,2.249.248-2.249-1.42,2.749V585H84.091Z" transform="translate(-29 -544)" fill="url(#blue-to-blue-45)"/>
		</g><g id="dick" transform="translate(96 98) rotate(180)">
      <rect width="15" height="51.915" rx="7.5" transform="translate(40.5 22)" fill="url(#blue-to-blue-45)"/>
      <ellipse cx="9.5" cy="9" rx="9.5" ry="9" transform="translate(31 18)" fill="url(#blue-to-blue-45)"/>
      <ellipse cx="9.5" cy="9" rx="9.5" ry="9" transform="translate(46 18)" fill="url(#blue-to-blue-45)"/>
    </g>
		</svg>