<svg width="600" height="600" viewBox="0 0 96 96" xmlns="http://www.w3.org/2000/svg">
			<title>clothe 1</title>	
			<defs><linearGradient id="blue-to-blue-45" x1="1.015" y1="-0.888" x2="-0.045" y2="1.333" gradientUnits="objectBoundingBox">
			<stop offset="0" stop-color="#6f73d2"/>
			<stop offset="1" stop-color="#83c9f4"/>
		</linearGradient><linearGradient id="rainbow-vertical" x1="1" y1="0.008" x2="0.014" y2="0.979" gradientUnits="objectBoundingBox">
			<stop offset="0" stop-color="#ffc6ff"/>
			<stop offset="0.148" stop-color="#bdb2ff"/>
			<stop offset="0.276" stop-color="#a0c4ff"/>
			<stop offset="0.435" stop-color="#9bf6ff"/>
			<stop offset="0.567" stop-color="#caffbf"/>
			<stop offset="0.685" stop-color="#fdffb6"/>
			<stop offset="0.857" stop-color="#ffd6a5"/>
			<stop offset="1" stop-color="#ffadad"/>
		</linearGradient></defs>
			<rect width="96" height="96" fill="#ffc6ff"/><g id="dick" transform="translate(96 98) rotate(180)">
      <rect width="15" height="51.915" rx="7.5" transform="translate(40.5 22)" fill="url(#blue-to-blue-45)"/>
      <ellipse cx="9.5" cy="9" rx="9.5" ry="9" transform="translate(31 18)" fill="url(#blue-to-blue-45)"/>
      <ellipse cx="9.5" cy="9" rx="9.5" ry="9" transform="translate(46 18)" fill="url(#blue-to-blue-45)"/>
    </g><path id="rainbow-blanket" d="M10.291,24.311c10.656-4.044,15.528-2.187,15.528-2.187s12.481-2.431,14.852-5.1S46.5,21.819,46.5,21.819h0l1.042,11.014s5.537,6.139,3.488,7.39c-.825.506-8.452-3.925-10.163-3.428-3,.872-8.931.443-11.067,1.487a13.037,13.037,0,0,1-10.41.068l-.667-6.343s-4.912-5.041-1.269-7.519-.917.481-.917.481Z" transform="matrix(-0.105, 0.995, -0.995, -0.105, 80.859, 24.679)" fill="url(#rainbow-vertical)"/>
		</svg>