<svg width="600" height="600" viewBox="0 0 96 96" xmlns="http://www.w3.org/2000/svg">
			<title>eye 3</title>	
			<defs><linearGradient id="blue-to-blue-45" x1="1.015" y1="-0.888" x2="-0.045" y2="1.333" gradientUnits="objectBoundingBox">
			<stop offset="0" stop-color="#6f73d2"/>
			<stop offset="1" stop-color="#83c9f4"/>
		</linearGradient><filter id="small-eyes-filter" x="33.642" y="27.524" width="21.683" height="20.087" filterUnits="userSpaceOnUse">
			<feOffset dy="3" input="SourceAlpha"/>
			<feGaussianBlur stdDeviation="3" result="blur"/>
			<feFlood flood-opacity="0.161"/>
			<feComposite operator="in" in2="blur"/>
			<feComposite in="SourceGraphic"/>
		</filter></defs>
			<rect width="96" height="96" fill="#ffc6ff"/><g id="dick" transform="translate(96 98) rotate(180)">
      <rect width="15" height="51.915" rx="7.5" transform="translate(40.5 22)" fill="url(#blue-to-blue-45)"/>
      <ellipse cx="9.5" cy="9" rx="9.5" ry="9" transform="translate(31 18)" fill="url(#blue-to-blue-45)"/>
      <ellipse cx="9.5" cy="9" rx="9.5" ry="9" transform="translate(46 18)" fill="url(#blue-to-blue-45)"/>
    </g><g id="small-eyes" transform="translate(0 0)">
            <g transform="matrix(1, 0, 0, 1, 0, -1)" filter="url(#small-eyes-filter)">
                <path d="M-138.23-1099.208a2.048,2.048,0,0,1,3.426,0C-136.495-1097.148-138.23-1099.208-138.23-1099.208Z" transform="translate(181 1133.8)" fill="rgba(255,255,255,0.90)" stroke="#000" stroke-width="0.2"/>
            </g>
            <g transform="matrix(1, 0, 0, 1, 0, -1)" filter="url(#small-eyes-filter)">
                <path d="M-138.23-1099.208a2.048,2.048,0,0,1,3.426,0C-136.495-1097.148-138.23-1099.208-138.23-1099.208Z" transform="translate(188 1133.8)" fill="rgba(255,255,255,0.90)" stroke="#000" stroke-width="0.2"/>
            </g>
            <circle cx="0.5" cy="0.5" r="0.5" transform="translate(44 33)"/>
            <circle cx="0.5" cy="0.5" r="0.5" transform="translate(51 33)"/>
        </g>
		</svg>