<svg width="600" height="600" viewBox="0 0 96 96" xmlns="http://www.w3.org/2000/svg">
			<title>eye 5</title>	
			<defs><linearGradient id="blue-to-blue-45" x1="1.015" y1="-0.888" x2="-0.045" y2="1.333" gradientUnits="objectBoundingBox">
			<stop offset="0" stop-color="#6f73d2"/>
			<stop offset="1" stop-color="#83c9f4"/>
		</linearGradient><filter id="female-cycloid-filter" x="34.642" y="20.887" width="26.488" height="22.729" filterUnits="userSpaceOnUse">
            <feOffset dy="3" input="SourceAlpha"/>
            <feGaussianBlur stdDeviation="3" result="blur"/>
            <feFlood flood-opacity="0.161"/>
            <feComposite operator="in" in2="blur"/>
            <feComposite in="SourceGraphic"/>
        </filter></defs>
			<rect width="96" height="96" fill="#ffc6ff"/><g id="dick" transform="translate(96 98) rotate(180)">
      <rect width="15" height="51.915" rx="7.5" transform="translate(40.5 22)" fill="url(#blue-to-blue-45)"/>
      <ellipse cx="9.5" cy="9" rx="9.5" ry="9" transform="translate(31 18)" fill="url(#blue-to-blue-45)"/>
      <ellipse cx="9.5" cy="9" rx="9.5" ry="9" transform="translate(46 18)" fill="url(#blue-to-blue-45)"/>
    </g><g id="female-cycloid" transform="translate(0 4)">
			<path d="M109.748,579.965s1.469-.881,1.277-1.969" transform="translate(-60 -552.56)" fill="none" stroke="#000" stroke-width="0.2"/>
			<path d="M109.748,579.981s1.717-.888,1.493-1.984" transform="translate(-59 -551.576)" fill="none" stroke="#000" stroke-width="0.2"/>
			<path d="M109.748,579.817s1.493-.814,1.3-1.82" transform="translate(-58 -550.412)" fill="none" stroke="#000" stroke-width="0.2"/>
			<g transform="matrix(1, 0, 0, 1, 0, 0)" filter="url(#female-cycloid-filter)">
				<path d="M-138.23-1097.862s3.877-5.186,8.23,0C-134.06-1092.913-138.23-1097.862-138.23-1097.862Z" transform="translate(182 1127.17)" fill="rgba(255,255,255,0.9)" stroke="#000" stroke-width="0.2"/>
			</g>
			<circle cx="1" cy="1" r="1" transform="translate(47 28)"/>
		</g>
		</svg>