<svg width="600" height="600" viewBox="0 0 96 96" xmlns="http://www.w3.org/2000/svg">
			<title>eye 6</title>	
			<defs><linearGradient id="blue-to-blue-45" x1="1.015" y1="-0.888" x2="-0.045" y2="1.333" gradientUnits="objectBoundingBox">
			<stop offset="0" stop-color="#6f73d2"/>
			<stop offset="1" stop-color="#83c9f4"/>
		</linearGradient><filter id="small-eyes-makeup-filter" x="33.642" y="27.524" width="21.683" height="20.087" filterUnits="userSpaceOnUse">
			<feOffset dy="3" input="SourceAlpha"/>
			<feGaussianBlur stdDeviation="3" result="blur"/>
			<feFlood flood-opacity="0.161"/>
			<feComposite operator="in" in2="blur"/>
			<feComposite in="SourceGraphic"/>
		</filter></defs>
			<rect width="96" height="96" fill="#ffc6ff"/><g id="dick" transform="translate(96 98) rotate(180)">
      <rect width="15" height="51.915" rx="7.5" transform="translate(40.5 22)" fill="url(#blue-to-blue-45)"/>
      <ellipse cx="9.5" cy="9" rx="9.5" ry="9" transform="translate(31 18)" fill="url(#blue-to-blue-45)"/>
      <ellipse cx="9.5" cy="9" rx="9.5" ry="9" transform="translate(46 18)" fill="url(#blue-to-blue-45)"/>
    </g><g id="small-eyes-makeup" transform="translate(-1 -4)">
            <path d="M423.938,35.839a2.323,2.323,0,0,1,.038-1.046c-.008-.149.271-.7,1.134-1.017a1.693,1.693,0,0,1,1.635.339,3.48,3.48,0,0,1,.987,1.347Z" transform="translate(-378 2)" fill="#12e5ed"/>
            <path d="M423.938,35.839a2.323,2.323,0,0,1,.038-1.046c-.008-.149.271-.7,1.134-1.017a1.693,1.693,0,0,1,1.635.339,3.48,3.48,0,0,1,.987,1.347Z" transform="translate(-373 2)" fill="#12e5ed"/>
            <g transform="translate(27.169 17.272)">
                <g transform="matrix(1, 0, 0, 1, -27.17, -17.27)" filter="url(#small-eyes-makeup-filter)">
                    <path d="M-138.23-1098.856s1.613-2.95,3.424,0C-136.5-1096.041-138.23-1098.856-138.23-1098.856Z" transform="translate(184.17 1136.73)" fill="rgba(255,255,255,0.90)" stroke="#000" stroke-width="0.2"/>
                </g>
                <circle cx="0.5" cy="0.5" r="0.5" transform="translate(20 20)"/>
            </g>
            <g transform="translate(32.169 17.272)">
                <g transform="matrix(1, 0, 0, 1, -32.17, -17.27)" filter="url(#small-eyes-makeup-filter)">
                    <path d="M-138.23-1098.856s1.613-2.95,3.424,0C-136.5-1096.041-138.23-1098.856-138.23-1098.856Z" transform="translate(189.17 1136.73)" fill="rgba(255,255,255,0.90)" stroke="#000" stroke-width="0.2"/>
                </g>
                <circle cx="0.5" cy="0.5" r="0.5" transform="translate(20 20)"/>
            </g>
        </g>
		</svg>