<svg width="600" height="600" viewBox="0 0 96 96" xmlns="http://www.w3.org/2000/svg">
			<title>hat 3</title>	
			<defs><linearGradient id="blue-to-blue-45" x1="1.015" y1="-0.888" x2="-0.045" y2="1.333" gradientUnits="objectBoundingBox">
			<stop offset="0" stop-color="#6f73d2"/>
			<stop offset="1" stop-color="#83c9f4"/>
		</linearGradient><linearGradient id="purple-green-vertical" x1="0.5" x2="0.5" y2="1" gradientUnits="objectBoundingBox">
			<stop offset="0" stop-color="#74ebd5"/>
			<stop offset="1" stop-color="#acb6e5"/>
		</linearGradient></defs>
			<rect width="96" height="96" fill="#ffc6ff"/><path id="square-hair" d="M983.185,168.707a7.857,7.857,0,0,0-9.083,2.709c-3.65,4.907-5.1,14.071-5.1,14.071l7.441,1.7h14.676l8.259-2.133-3.729-13.641-5.322-3.957s-4.75-2.786-6.116-.939S983.185,168.707,983.185,168.707Z" transform="translate(-936 -147)" fill="url(#purple-green-vertical)"/><g id="dick" transform="translate(96 98) rotate(180)">
      <rect width="15" height="51.915" rx="7.5" transform="translate(40.5 22)" fill="url(#blue-to-blue-45)"/>
      <ellipse cx="9.5" cy="9" rx="9.5" ry="9" transform="translate(31 18)" fill="url(#blue-to-blue-45)"/>
      <ellipse cx="9.5" cy="9" rx="9.5" ry="9" transform="translate(46 18)" fill="url(#blue-to-blue-45)"/>
    </g><g id="square-hair-above">
			<path d="M983.3,171.085s-3.51-.271-5.081,2.163a15.077,15.077,0,0,0-1.911,3.724s3.423.074,4.451,0S983.3,171.085,983.3,171.085Z" transform="translate(-936 -147)" fill="url(#purple-green-vertical)"/>
			<path d="M976.3,171.085s4.547-.271,6.581,2.163a13.971,13.971,0,0,1,2.475,3.724s-4.433.074-5.765,0S976.3,171.085,976.3,171.085Z" transform="translate(-929 -147)" fill="url(#purple-green-vertical)"/>
		</g>
		</svg>