<svg width="600" height="600" viewBox="0 0 96 96" xmlns="http://www.w3.org/2000/svg">
			<title>hat 13</title>	
			<defs><linearGradient id="blue-to-blue-45" x1="1.015" y1="-0.888" x2="-0.045" y2="1.333" gradientUnits="objectBoundingBox">
			<stop offset="0" stop-color="#6f73d2"/>
			<stop offset="1" stop-color="#83c9f4"/>
		</linearGradient></defs>
			<rect width="96" height="96" fill="#ffc6ff"/><g id="dick" transform="translate(96 98) rotate(180)">
      <rect width="15" height="51.915" rx="7.5" transform="translate(40.5 22)" fill="url(#blue-to-blue-45)"/>
      <ellipse cx="9.5" cy="9" rx="9.5" ry="9" transform="translate(31 18)" fill="url(#blue-to-blue-45)"/>
      <ellipse cx="9.5" cy="9" rx="9.5" ry="9" transform="translate(46 18)" fill="url(#blue-to-blue-45)"/>
    </g><path id="witch-hat" d="M418.768,28.619s-19.514-1.23-11.779-6.731a55.2,55.2,0,0,1,13.473-7.347L426.6-.23l4.023,14.771s13.1.165,11.742,4.032-9.009,7.6-9.009,7.6-.623-4.634-2.733-6.013a13.585,13.585,0,0,0-5.537-1.59s-3.6.157-4.627,1.59-1.694,6.921-1.694,6.921Z" transform="translate(-378 7)" fill="#151313"/>
		</svg>