<svg width="600" height="600" viewBox="0 0 96 96" xmlns="http://www.w3.org/2000/svg">
			<title>hat 15</title>	
			<defs><linearGradient id="blue-to-blue-45" x1="1.015" y1="-0.888" x2="-0.045" y2="1.333" gradientUnits="objectBoundingBox">
			<stop offset="0" stop-color="#6f73d2"/>
			<stop offset="1" stop-color="#83c9f4"/>
		</linearGradient><radialGradient id="pink-to-purple-rounded" cx="0.5" cy="0.5" r="0.5" gradientUnits="objectBoundingBox">
			<stop offset="0" stop-color="#eeaeca" stop-opacity="0.451"/>
			<stop offset="1" stop-color="#94bbe9" stop-opacity="0.451"/>
		</radialGradient></defs>
			<rect width="96" height="96" fill="#ffc6ff"/><g id="dick" transform="translate(96 98) rotate(180)">
      <rect width="15" height="51.915" rx="7.5" transform="translate(40.5 22)" fill="url(#blue-to-blue-45)"/>
      <ellipse cx="9.5" cy="9" rx="9.5" ry="9" transform="translate(31 18)" fill="url(#blue-to-blue-45)"/>
      <ellipse cx="9.5" cy="9" rx="9.5" ry="9" transform="translate(46 18)" fill="url(#blue-to-blue-45)"/>
    </g><g id="cosmonaut-helmet">
			<path id="left-helmet-ear" d="M496.727,526.544l-1.892-.629v5.608l1.892-.553Z" transform="translate(-460 -498)" fill="#fff"/>
			<path id="right-helmet-ear" d="M496.727,526.544l-1.892-.629v5.608l1.892-.553Z" transform="translate(555.561 559.439) rotate(180)" fill="#fff"/>
			<g id="helmet-window" transform="translate(38 23)">
				<ellipse cx="10" cy="8.5" rx="10" ry="8.5" fill="url(#pink-to-purple-rounded)"/>
			</g>
			<g transform="translate(36 19)" fill="none" stroke="#fff" stroke-width="2">
				<circle cx="12" cy="12" r="12" stroke="none"/>
				<circle cx="12" cy="12" r="11" fill="none"/>
			</g>
			<g transform="translate(36 21)" fill="none" stroke="#fff" stroke-width="2">
				<ellipse cx="12" cy="10.5" rx="12" ry="10.5" stroke="none"/>
				<ellipse cx="12" cy="10.5" rx="11" ry="9.5" fill="none"/>
			</g>
			<g transform="translate(36 20)" fill="none" stroke="#fff" stroke-width="2">
				<ellipse cx="12" cy="11" rx="12" ry="11" stroke="none"/>
				<ellipse cx="12" cy="11" rx="11" ry="10" fill="none"/>
			</g>
			<path id="helmet-bottom" d="M497.966,542.957l-3.131,1.865V525.916l3.131,2.119.42.271" transform="translate(-487.606 538.5) rotate(-90)" fill="#fff"/>
		</g>
		</svg>