<svg width="600" height="600" viewBox="0 0 96 96" xmlns="http://www.w3.org/2000/svg">
			<title>hat 6</title>	
			<defs><linearGradient id="blue-to-blue-45" x1="1.015" y1="-0.888" x2="-0.045" y2="1.333" gradientUnits="objectBoundingBox">
			<stop offset="0" stop-color="#6f73d2"/>
			<stop offset="1" stop-color="#83c9f4"/>
		</linearGradient><linearGradient id="purple-green-vertical" x1="0.5" x2="0.5" y2="1" gradientUnits="objectBoundingBox">
			<stop offset="0" stop-color="#74ebd5"/>
			<stop offset="1" stop-color="#acb6e5"/>
		</linearGradient></defs>
			<rect width="96" height="96" fill="#ffc6ff"/><g id="dick" transform="translate(96 98) rotate(180)">
      <rect width="15" height="51.915" rx="7.5" transform="translate(40.5 22)" fill="url(#blue-to-blue-45)"/>
      <ellipse cx="9.5" cy="9" rx="9.5" ry="9" transform="translate(31 18)" fill="url(#blue-to-blue-45)"/>
      <ellipse cx="9.5" cy="9" rx="9.5" ry="9" transform="translate(46 18)" fill="url(#blue-to-blue-45)"/>
    </g><g id="king-crown" transform="translate(0 -1)">
			<path d="M1180.083,280.231c-1.292.622,0-10.1,0-10.1l3.84,3.607,3.674-6.408,2.667,6.408,3.886-3.607v10.1S1181.375,279.609,1180.083,280.231Z" transform="translate(-1139 -251)" fill="url(#purple-green-vertical)"/>
			<circle cx="1.5" cy="1.5" r="1.5" transform="translate(47 23)" fill="#3effda"/>
		</g>
		</svg>