<svg width="600" height="600" viewBox="0 0 96 96" xmlns="http://www.w3.org/2000/svg">
			<title>hat 2</title>	
			<defs><linearGradient id="blue-to-blue-45" x1="1.015" y1="-0.888" x2="-0.045" y2="1.333" gradientUnits="objectBoundingBox">
			<stop offset="0" stop-color="#6f73d2"/>
			<stop offset="1" stop-color="#83c9f4"/>
		</linearGradient><linearGradient id="white-to-yellow-vertical" x1="0.5" x2="0.5" y2="1" gradientUnits="objectBoundingBox">
		<stop offset="0" stop-color="#fff"/>
		<stop offset="1" stop-color="#e8eb88"/>
	  </linearGradient></defs>
			<rect width="96" height="96" fill="#ffc6ff"/><path id="sun-hair" d="M1265.417,385.168s3.012-1.382,3.663-4.056c.323-1.356-1.506-2.721,0-3.462,3.655-1.8,4.594,0,4.594,0s-4.287-5.258-1.484-5.513a6.66,6.66,0,0,1,4.818,1.7s-3.392-9.143,0-7.7a12.506,12.506,0,0,1,5.286,4.74s2.932-7.4,4.218-5.523,1.17,6.017,1.17,6.017,1.858-6.241,4.8-5.235a16.836,16.836,0,0,1,0,5.235s6.529-1.385,2.819,3.638c-.609,2,6.929,1.035,5.133,3.151s-1.732,2.522-1.732,2.522,7.442-.72,3.3,1.817c-1.059.649-1.37.731-1.195,1.664.213,1.525,3.636,3.606-.378,3.3-5.4-.413-3.619-1.9-3.619-1.59s.915,3.591-2.073,4.007.412,5.606-3.14,3.94-3.921-2.951-3.921-2.951-.846,7.952-2.426,7.535-2.962-8.081-2.962-8.081-.412,6.534-3.125,4.1a4.472,4.472,0,0,1-1.463-5.122s-5.15,4.632-4.781.578,1.317-5.243,1.317-5.243l4.253,4.664,6.761,2.032,4.487-1.454s2.74-2.377,2.74-3.4-1.821-7.772-1.821-7.772-5.323-2.577-5.718-2.229-4.25.825-5.147,2.229a32.508,32.508,0,0,0-2.091,5.451l.789,5.138-4.821-3.428-4.007,1.59Z" transform="translate(-1237 -352)" fill="url(#white-to-yellow-vertical)"/><g id="dick" transform="translate(96 98) rotate(180)">
      <rect width="15" height="51.915" rx="7.5" transform="translate(40.5 22)" fill="url(#blue-to-blue-45)"/>
      <ellipse cx="9.5" cy="9" rx="9.5" ry="9" transform="translate(31 18)" fill="url(#blue-to-blue-45)"/>
      <ellipse cx="9.5" cy="9" rx="9.5" ry="9" transform="translate(46 18)" fill="url(#blue-to-blue-45)"/>
    </g>
		</svg>