<svg width="600" height="600" viewBox="0 0 96 96" xmlns="http://www.w3.org/2000/svg">
			<title>hat 5</title>	
			<defs><linearGradient id="blue-to-blue-45" x1="1.015" y1="-0.888" x2="-0.045" y2="1.333" gradientUnits="objectBoundingBox">
			<stop offset="0" stop-color="#6f73d2"/>
			<stop offset="1" stop-color="#83c9f4"/>
		</linearGradient></defs>
			<rect width="96" height="96" fill="#ffc6ff"/><g id="dick" transform="translate(96 98) rotate(180)">
      <rect width="15" height="51.915" rx="7.5" transform="translate(40.5 22)" fill="url(#blue-to-blue-45)"/>
      <ellipse cx="9.5" cy="9" rx="9.5" ry="9" transform="translate(31 18)" fill="url(#blue-to-blue-45)"/>
      <ellipse cx="9.5" cy="9" rx="9.5" ry="9" transform="translate(46 18)" fill="url(#blue-to-blue-45)"/>
    </g><g id="alien-eyes">
			<line id="right-antenna" y1="7" x2="7" transform="translate(52.5 19.5)" fill="none" stroke="#8e94f2" stroke-width="1"/>
			<line id="left-antenna" x1="11" y1="5" transform="translate(32.5 22.5)" fill="none" stroke="#8e94f2" stroke-width="1"/>
			<g id="left-eyes" transform="translate(32 20)" fill="#9fa0ff" stroke="#8e94f2" stroke-width="1">
				<ellipse cx="1.5" cy="2" rx="1.5" ry="2" stroke="none"/>
				<ellipse cx="1.5" cy="2" rx="1" ry="1.5" fill="none"/>
			</g>
			<g id="right-eyes" transform="translate(59 17)" fill="#9fa0ff" stroke="#8e94f2" stroke-width="1">
				<ellipse cx="1.5" cy="2" rx="1.5" ry="2" stroke="none"/>
				<ellipse cx="1.5" cy="2" rx="1" ry="1.5" fill="none"/>
			</g>
			<g id="left-pupil" transform="translate(33 21)" fill="#000">
				<circle cx="0.5" cy="0.5" r="0.5"/>
			</g>
			<g id="right-pupil" transform="translate(60 19)" fill="#000">
				<circle cx="0.5" cy="0.5" r="0.5"/>
			</g>
		</g>
		</svg>