<svg width="600" height="600" viewBox="0 0 96 96" xmlns="http://www.w3.org/2000/svg">
			<title>hat 1</title>	
			<defs><linearGradient id="blue-to-blue-45" x1="1.015" y1="-0.888" x2="-0.045" y2="1.333" gradientUnits="objectBoundingBox">
			<stop offset="0" stop-color="#6f73d2"/>
			<stop offset="1" stop-color="#83c9f4"/>
		</linearGradient><linearGradient id="shades-of-black-hair-vertical" x1="0.5" x2="0.5" y2="1" gradientUnits="objectBoundingBox">
			<stop offset="0" stop-color="#29312d"/>
			<stop offset="0.498" stop-color="#3b3527"/>
			<stop offset="1"/>
		</linearGradient></defs>
			<rect width="96" height="96" fill="#ffc6ff"/><g id="dick" transform="translate(96 98) rotate(180)">
      <rect width="15" height="51.915" rx="7.5" transform="translate(40.5 22)" fill="url(#blue-to-blue-45)"/>
      <ellipse cx="9.5" cy="9" rx="9.5" ry="9" transform="translate(31 18)" fill="url(#blue-to-blue-45)"/>
      <ellipse cx="9.5" cy="9" rx="9.5" ry="9" transform="translate(46 18)" fill="url(#blue-to-blue-45)"/>
    </g><g id="black-fire-hair" transform="translate(0 -1)">
			<path d="M849.438,66.63s-5.191-1.7-1.925-5.976,4.107-4.122,4.107-4.122l4.089-2.042s3.38-2.6,3.468,0,5.2-1.065,2.689-1.546c-.593-.888,4.15-2.04,3.568,3.588s5.3,4.576,3.055,5.049-3.487,6.042-4.168,5.734-.77-6.113-1.951-6.3-1.083-1.524-3.193-.361-1.468,4.774-4.157.927-4.322,2.307-4.322,2.307Z" transform="translate(-809 -33)" fill="url(#shades-of-black-hair-vertical)"/>
		</g>
		</svg>