<svg width="600" height="600" viewBox="0 0 96 96" xmlns="http://www.w3.org/2000/svg">
			<title>special 1</title>	
			<defs><linearGradient id="blue-to-blue-45" x1="1.015" y1="-0.888" x2="-0.045" y2="1.333" gradientUnits="objectBoundingBox">
			<stop offset="0" stop-color="#6f73d2"/>
			<stop offset="1" stop-color="#83c9f4"/>
		</linearGradient><filter id="cape-small-eyes-filter-1" x="32.462" y="26.542" width="21.656" height="20.781" filterUnits="userSpaceOnUse">
			<feOffset dy="3" input="SourceAlpha"/>
			<feGaussianBlur stdDeviation="3" result="blur"/>
			<feFlood flood-opacity="0.161"/>
			<feComposite operator="in" in2="blur"/>
			<feComposite in="SourceGraphic"/>
		</filter><filter id="cape-small-eyes-filter-2" x="40.462" y="26.542" width="21.656" height="20.781" filterUnits="userSpaceOnUse">
			<feOffset dy="3" input="SourceAlpha"/>
			<feGaussianBlur stdDeviation="3" result="blur-2"/>
			<feFlood flood-opacity="0.161"/>
			<feComposite operator="in" in2="blur-2"/>
			<feComposite in="SourceGraphic"/>
		</filter></defs>
			<rect width="96" height="96" fill="#ffc6ff"/><g id="dick" transform="translate(96 98) rotate(180)">
      <rect width="15" height="51.915" rx="7.5" transform="translate(40.5 22)" fill="url(#blue-to-blue-45)"/>
      <ellipse cx="9.5" cy="9" rx="9.5" ry="9" transform="translate(31 18)" fill="url(#blue-to-blue-45)"/>
      <ellipse cx="9.5" cy="9" rx="9.5" ry="9" transform="translate(46 18)" fill="url(#blue-to-blue-45)"/>
    </g><g id="dark-cape">
			<path d="M1319.99,621.085s-3.4-.375-4.823,1.647-3.251,11.841-3.7,13.372-3.71,12.071-3.71,12.071l-3.5,13.829-1.928,9.443h37.476s-10.453-45.929-11.932-47.205-2.041-2.579-3.324-3.158S1319.99,621.085,1319.99,621.085Z" transform="translate(-1273 -597)" fill="#0a0909"/>
			<g transform="translate(22.808 13.364)">
				<g transform="matrix(1, 0, 0, 1, -22.81, -13.36)" filter="url(#cape-small-eyes-filter-1)">
					<path d="M-138.23-1098.856s1.613-2.95,3.424,0C-136.5-1096.041-138.23-1098.856-138.23-1098.856Z" transform="translate(179.81 1132.82)" fill="rgba(255,255,255,0.75)" stroke="#000" stroke-width="0.2"/>
				</g>
				<circle cx="0.5" cy="0.5" r="0.5" transform="translate(20 20)"/>
			</g>
			<g transform="translate(30.808 13.364)">
				<g transform="matrix(1, 0, 0, 1, -30.81, -13.36)" filter="url(#cape-small-eyes-filter-2)">
					<path d="M-138.23-1098.856s1.613-2.95,3.424,0C-136.5-1096.041-138.23-1098.856-138.23-1098.856Z" transform="translate(187.81 1132.82)" fill="rgba(255,255,255,0.75)" stroke="#000" stroke-width="0.2"/>
				</g>
				<circle cx="0.5" cy="0.5" r="0.5" transform="translate(20 20)"/>
			</g>
		</g>
		</svg>