<svg width="600" height="600" viewBox="0 0 96 96" xmlns="http://www.w3.org/2000/svg">
			<title>special 2</title>	
			<defs><linearGradient id="blue-to-blue-45" x1="1.015" y1="-0.888" x2="-0.045" y2="1.333" gradientUnits="objectBoundingBox">
			<stop offset="0" stop-color="#6f73d2"/>
			<stop offset="1" stop-color="#83c9f4"/>
		</linearGradient></defs>
			<rect width="96" height="96" fill="#ffc6ff"/><g id="dick" transform="translate(96 98) rotate(180)">
      <rect width="15" height="51.915" rx="7.5" transform="translate(40.5 22)" fill="url(#blue-to-blue-45)"/>
      <ellipse cx="9.5" cy="9" rx="9.5" ry="9" transform="translate(31 18)" fill="url(#blue-to-blue-45)"/>
      <ellipse cx="9.5" cy="9" rx="9.5" ry="9" transform="translate(46 18)" fill="url(#blue-to-blue-45)"/>
    </g><g id="ghost-cape" transform="translate(0 -1)">
			<path fill="#fff" d="M321,244.085a28.971,28.971,0,0,0-2.952,0s-3.162,2.024-3.686,3.331-2.106,4.559-2.106,4.559l-9.3,29.677s35.257-1.314,36.375,0-11.79-34.236-11.79-34.236l-2.629-2.147S321.048,244.186,321,244.085Z" transform="translate(-273 -220)"/>
			<ellipse fill="#101515" cx="2.5" cy="1" rx="2.5" ry="1" transform="translate(40 34)"/>
    		<ellipse fill="#101515" cx="2.5" cy="1" rx="2.5" ry="1" transform="translate(49 34)"/>
		</g>
		</svg>